<?xml version="1.0" standalone="no"?>
<!DOCTYPE svg PUBLIC "-//W3C//DTD SVG 20010904//EN"
 "http://www.w3.org/TR/2001/REC-SVG-20010904/DTD/svg10.dtd">
<svg version="1.0" xmlns="http://www.w3.org/2000/svg"
 width="1254.000000pt" height="1254.000000pt" viewBox="0 0 1254.000000 1254.000000"
 preserveAspectRatio="xMidYMid meet">
<metadata>
Created by potrace 1.16, written by Peter Selinger 2001-2019
</metadata>
<g transform="translate(0.000000,1254.000000) scale(0.100000,-0.100000)"
fill="#000000" stroke="none">
<path d="M0 6270 l0 -6270 6270 0 6270 0 0 6270 0 6270 -6270 0 -6270 0 0
-6270z m9297 5653 c-10 -9 -6006 -10 -6000 0 2 4 1355 7 3005 7 1651 0 2998
-3 2995 -7z m193 -61 c36 -5 113 -17 172 -26 129 -19 352 -73 502 -123 242
-80 558 -268 765 -454 492 -440 748 -1011 801 -1784 11 -168 15 -5848 3 -6080
-4 -86 -9 -130 -14 -117 -10 26 -11 450 -8 2405 0 59 -3 112 -6 117 -3 5 -5
56 -4 112 4 283 8 980 8 1268 -1 1397 -5 2117 -11 2126 -7 11 -15 128 -23 374
-3 93 -9 141 -25 185 -11 33 -23 86 -25 118 -2 32 -8 64 -13 70 -5 7 -15 30
-22 52 -7 22 -15 45 -19 50 -3 6 -6 15 -8 20 -1 6 -11 35 -22 65 -12 30 -21
63 -21 72 0 10 -5 18 -10 18 -6 0 -10 6 -8 13 2 10 -56 141 -93 209 -5 10 -9
23 -9 28 0 22 -51 118 -65 124 -8 3 -25 27 -39 53 -13 26 -57 83 -96 126 -39
42 -69 77 -65 77 6 0 -185 190 -221 220 -10 8 -57 43 -104 77 -47 34 -98 74
-115 89 -16 15 -48 35 -70 46 -22 10 -60 32 -85 48 -192 124 -618 249 -960
281 -69 6 -134 14 -145 17 -33 10 -6004 11 -6185 1 -238 -13 -471 -37 -575
-60 -116 -25 -388 -113 -485 -157 -41 -18 -91 -41 -110 -49 -19 -9 -37 -19
-40 -23 -3 -4 -37 -24 -77 -46 -89 -49 -179 -109 -217 -146 -17 -15 -34 -28
-39 -28 -11 0 -192 -173 -230 -220 -16 -19 -48 -55 -71 -80 -23 -25 -51 -58
-61 -75 -11 -16 -40 -59 -66 -95 -52 -73 -114 -189 -160 -300 -17 -41 -37 -82
-44 -90 -7 -8 -21 -40 -30 -70 -9 -30 -29 -91 -43 -135 -14 -44 -25 -87 -25
-95 1 -8 -3 -29 -8 -46 -19 -62 -40 -160 -44 -209 -5 -53 -23 -153 -29 -163
-13 -21 -30 -893 -24 -1262 7 -464 0 -1100 -13 -1100 -5 0 -9 -5 -9 -11 0 -5
4 -8 9 -5 5 3 10 -4 10 -17 2 -20 6 -572 9 -1062 1 -171 3 -420 4 -485 1 -71
-12 -311 -17 -320 -3 -6 -2 -10 2 -10 14 0 13 -372 -1 -389 -8 -10 -8 -13 0
-8 8 4 11 -46 10 -178 -1 -102 3 -185 7 -185 5 0 5 -5 1 -11 -5 -9 -13 -547
-12 -784 4 -551 4 -557 -18 -548 -8 3 -15 -1 -15 -8 -1 -8 -2 -18 -4 -24 -1
-5 -3 -32 -5 -60 -3 -49 -3 -48 -13 25 -5 44 -11 1276 -13 2965 -5 2924 -2
3283 31 3530 58 438 185 801 385 1101 97 144 173 237 295 359 444 446 1005
672 1750 705 261 11 6150 4 6225 -8z m-7100 -101 c0 -4 -28 -18 -62 -30 -74
-26 -91 -34 -228 -101 -116 -56 -163 -82 -183 -99 -8 -6 -36 -23 -63 -37 -26
-14 -60 -35 -75 -47 -15 -12 -41 -33 -59 -47 -169 -129 -437 -409 -506 -527
-10 -18 -22 -33 -26 -33 -13 0 -9 17 7 30 8 7 15 19 15 26 0 8 9 19 20 26 11
7 20 18 20 24 0 5 14 23 30 39 17 16 30 34 30 41 0 6 16 26 35 43 19 17 35 34
35 39 0 19 288 282 309 282 6 0 18 11 27 25 9 14 22 25 29 25 6 0 20 9 30 20
10 11 24 20 32 20 7 0 13 5 13 10 0 6 6 10 13 10 8 0 22 9 32 20 10 11 24 20
31 20 7 0 14 3 16 8 2 4 21 16 43 27 22 11 42 22 45 25 7 7 79 40 86 39 4 0
10 3 13 8 6 9 63 36 70 33 2 -1 7 3 10 8 5 8 185 80 204 82 4 0 7 -4 7 -9z
m8395 -322 c4 -5 10 -7 14 -5 4 3 21 -8 36 -24 16 -17 35 -30 42 -30 7 0 20
-11 29 -25 9 -14 21 -25 27 -25 14 0 222 -202 222 -216 0 -6 17 -25 38 -43 20
-18 37 -39 37 -45 0 -7 14 -22 30 -34 17 -13 30 -30 30 -40 0 -9 9 -23 20 -30
11 -7 20 -18 20 -25 0 -7 9 -19 20 -27 11 -8 20 -21 20 -30 0 -9 9 -22 20 -30
11 -8 20 -18 20 -22 0 -4 14 -29 30 -55 30 -48 36 -63 23 -63 -5 0 -23 28 -42
62 -18 33 -49 82 -67 107 -19 25 -49 66 -66 91 -18 25 -41 51 -50 58 -10 7
-18 18 -18 23 0 26 -229 257 -342 345 -56 43 -115 92 -132 107 l-31 29 32 -22
c18 -11 35 -25 38 -31z m-4441 -1444 c97 -25 168 -85 212 -180 18 -38 19 -81
19 -931 l0 -890 -24 -46 c-52 -102 -125 -156 -239 -178 -128 -24 -268 51 -333
177 l-24 47 0 895 0 896 37 60 c54 88 127 140 217 155 68 11 72 11 135 -5z
m-5582 -3657 c-1 -1862 -6 -3178 -11 -3178 -11 0 -15 5793 -5 6138 4 128 10
229 13 225 3 -4 5 -1438 3 -3185z m11038 2 c0 -2093 -3 -3150 -10 -3150 -7 0
-10 1057 -10 3150 0 2093 3 3150 10 3150 7 0 10 -1057 10 -3150z m-7705 2725
c40 -19 127 -103 411 -392 198 -202 432 -441 519 -531 198 -201 220 -237 220
-361 0 -74 -4 -94 -28 -143 -30 -61 -74 -105 -140 -140 -35 -19 -58 -23 -132
-23 -145 0 -151 4 -490 347 -640 646 -767 780 -793 838 -37 79 -37 184 -1 260
78 165 263 227 434 145z m4593 20 c68 -21 152 -97 182 -167 29 -65 31 -150 7
-231 -21 -69 -24 -72 -651 -710 -327 -333 -454 -456 -491 -475 -44 -23 -62
-26 -145 -27 -80 0 -102 4 -137 23 -136 72 -201 222 -158 367 27 96 -36 25
724 803 195 200 371 372 389 384 80 50 183 62 280 33z m-2153 -1640 c207 -26
383 -76 656 -186 85 -34 181 -72 214 -84 33 -12 213 -84 400 -160 187 -75 367
-147 400 -160 138 -53 557 -219 647 -256 157 -66 226 -150 235 -289 11 -157
-72 -274 -242 -342 -103 -41 -647 -270 -905 -381 -980 -420 -1041 -444 -1275
-494 -122 -25 -145 -27 -390 -28 -233 0 -272 2 -375 23 -231 47 -348 87 -715
244 -945 407 -1136 488 -1470 624 -65 27 -137 62 -159 79 -110 84 -153 231
-105 362 29 79 111 159 194 190 33 13 168 65 300 117 132 52 283 111 335 131
128 50 934 372 1090 435 243 99 485 164 680 183 99 10 378 5 485 -8z m-1443
-2428 c94 -55 158 -159 158 -257 0 -61 -24 -144 -53 -189 -25 -37 -290 -312
-781 -810 -249 -253 -287 -287 -345 -314 -202 -95 -441 48 -441 263 0 77 19
144 53 193 18 24 264 279 547 567 596 604 570 584 725 578 77 -3 98 -8 137
-31z m2614 17 c53 -18 142 -104 828 -804 355 -362 361 -370 361 -505 -1 -98
-24 -154 -90 -220 -98 -98 -228 -116 -370 -49 -35 16 -83 57 -155 131 -58 59
-268 275 -466 478 -449 461 -481 496 -506 553 -25 56 -34 153 -19 207 25 93
111 184 199 212 54 17 161 15 218 -3z m-1332 -291 c63 -23 140 -92 174 -157
l27 -51 0 -885 0 -885 -26 -56 c-31 -66 -83 -119 -147 -150 -68 -33 -208 -33
-270 -1 -62 33 -114 83 -148 144 l-29 53 -3 878 -3 878 27 60 c32 71 113 150
176 172 60 21 162 21 222 0z"/>
<path d="M6090 6869 c-214 -24 -287 -50 -1215 -431 -121 -50 -248 -101 -281
-115 -71 -28 -86 -53 -48 -78 13 -8 26 -15 29 -15 6 0 365 -153 585 -250 518
-227 620 -267 760 -299 371 -82 688 -42 1087 140 34 16 91 40 125 55 35 14 83
35 108 47 25 11 74 32 110 47 36 16 155 67 265 115 110 48 238 103 285 122 47
20 91 41 98 48 24 22 1 43 -86 79 -48 19 -195 80 -327 135 -199 82 -383 156
-785 316 -68 27 -234 66 -339 80 -116 16 -254 17 -371 4z m343 -246 c81 -38
156 -112 193 -190 38 -81 44 -205 14 -292 -86 -255 -363 -353 -592 -209 -105
66 -178 203 -178 334 0 68 36 179 75 230 44 57 108 106 180 135 62 26 80 29
155 26 71 -2 97 -8 153 -34z"/>
</g>
</svg>
